<svg width="12" height="7" viewBox="0 0 12 7" fill="none" xmlns="http://www.w3.org/2000/svg">
<path fill-rule="evenodd" clip-rule="evenodd" d="M10.192 6.66265C10.4524 6.923 10.8745 6.923 11.1348 6.66265C11.3952 6.4023 11.3952 5.98019 11.1348 5.71984L6.47447 1.0595C6.47241 1.05738 6.47033 1.05527 6.46823 1.05317C6.33754 0.922478 6.16608 0.857391 5.99479 0.857912C5.82482 0.858409 5.65502 0.923495 5.52534 1.05317C5.52325 1.05526 5.52119 1.05735 5.51913 1.05946L0.858755 5.71984C0.598405 5.98019 0.598405 6.4023 0.858755 6.66265C1.1191 6.923 1.54121 6.923 1.80156 6.66265L5.99679 2.46743L10.192 6.66265Z" fill="#FCFCFC"/>
</svg>
