<svg width="16" height="17" viewBox="0 0 16 17" fill="none" xmlns="http://www.w3.org/2000/svg">
<path fill-rule="evenodd" clip-rule="evenodd" d="M3.80812 7.05317C3.54777 6.79282 3.12566 6.79282 2.86531 7.05317C2.60496 7.31352 2.60496 7.73563 2.86531 7.99598L7.52565 12.6563C7.52771 12.6584 7.52979 12.6606 7.53189 12.6626C7.66259 12.7933 7.83404 12.8584 8.00534 12.8579C8.1753 12.8574 8.34511 12.7923 8.47478 12.6626C8.47687 12.6606 8.47894 12.6585 8.48099 12.6564L13.1414 7.99598C13.4017 7.73563 13.4017 7.31352 13.1414 7.05317C12.881 6.79282 12.4589 6.79282 12.1986 7.05317L8.00334 11.2484L3.80812 7.05317Z" fill="#2D3440"/>
</svg>
