<svg width="14" height="14" viewBox="0 0 14 14" fill="none" xmlns="http://www.w3.org/2000/svg">
<path fill-rule="evenodd" clip-rule="evenodd" d="M1.66341 6.18799C1.66341 3.61066 3.75275 1.52132 6.33008 1.52132C8.90741 1.52132 10.9967 3.61066 10.9967 6.18799C10.9967 7.44526 10.4995 8.58641 9.69105 9.42554C9.66821 9.44309 9.64624 9.46234 9.62532 9.48326C9.6044 9.50418 9.58516 9.52614 9.5676 9.54898C8.72847 10.3575 7.58734 10.8547 6.33008 10.8547C3.75275 10.8547 1.66341 8.76532 1.66341 6.18799ZM10.0752 10.8759C9.04874 11.697 7.74675 12.188 6.33008 12.188C3.01637 12.188 0.330078 9.5017 0.330078 6.18799C0.330078 2.87428 3.01637 0.187988 6.33008 0.187988C9.64379 0.187988 12.3301 2.87428 12.3301 6.18799C12.3301 7.60467 11.8391 8.90668 11.018 9.93313L13.4681 12.3833C13.7285 12.6436 13.7285 13.0657 13.4681 13.3261C13.2078 13.5864 12.7857 13.5864 12.5253 13.3261L10.0752 10.8759Z" fill="#2D3440"/>
</svg>
